<svg width="69" height="36" viewBox="0 0 69 36" fill="none" xmlns="http://www.w3.org/2000/svg">
<path d="M0 35.7764C0 35.4962 1.22195 33.3706 2.98427 30.5678C4.74659 27.765 4.55861 27.8116 13.7937 27.8116C20.9137 27.8116 20.9137 27.8116 20.9608 13.9844C21.0312 0.133759 21.0312 0.133757 24.791 0.0637317C30.9477 -0.0296854 30.4072 -1.15084 30.2427 11.5786C30.1487 17.4879 29.9843 22.6965 29.8433 23.1403C29.7258 23.5842 29.4203 24.2849 29.1854 24.6586C28.5509 25.6863 20.2324 34.305 19.3864 34.8188C17.7181 35.8466 16.3315 35.9866 7.94251 35.9866C3.10179 35.9866 0 35.8932 0 35.7764ZM46.175 35.613C45.4229 35.4261 44.3656 35.0291 43.8251 34.702C42.7675 34.0714 35.436 26.5738 34.4726 25.1256C33.0863 23.0469 32.6633 17.5347 33.6032 13.891C35.2716 7.44444 40.2769 2.16585 46.41 0.460794C48.1959 -0.0296833 53.7651 0.0169478 55.5745 0.55421C56.9139 0.951271 57.1723 1.1615 60.9322 4.99205C67.3943 11.532 67.6293 11.9057 68.1228 15.853C68.8042 21.2018 66.9008 26.5504 62.8826 30.5212C60.6737 32.6701 58.3709 34.1181 55.4571 35.1459C53.6946 35.7532 53.1072 35.8466 50.5224 35.9166C48.525 35.94 47.1385 35.8698 46.175 35.613ZM55.1751 27.0177C56.6086 26.2236 58.0185 24.7754 58.7234 23.3973C59.7574 21.412 59.9219 20.1041 59.9219 13.9612C59.9219 8.16869 59.9219 8.16869 54.3527 8.23871C48.8539 8.30874 48.7365 8.30874 47.4206 8.93942C45.6112 9.78032 43.8487 11.5554 42.9323 13.5173C42.1802 15.0822 42.1803 15.0822 42.1098 21.4587C42.0394 27.8352 42.0394 27.835 47.9845 27.765C53.9296 27.695 53.9296 27.6951 55.1751 27.0177Z" fill="white"/>
</svg>
