<svg width="180" height="36" viewBox="0 0 180 36" fill="none" xmlns="http://www.w3.org/2000/svg"><path d="M0 35.776c0-.28 1.222-2.405 2.984-5.208s1.575-2.756 10.81-2.756c7.12 0 7.12 0 7.167-13.828.07-13.85.07-13.85 3.83-13.92 6.157-.094 5.616-1.215 5.452 11.515-.094 5.909-.259 11.118-.4 11.561a6.8 6.8 0 0 1-.658 1.519c-.634 1.027-8.953 9.646-9.799 10.16-1.668 1.028-3.055 1.168-11.443 1.168-4.841 0-7.943-.094-7.943-.21m46.175-.163c-.752-.187-1.81-.584-2.35-.911-1.058-.63-8.389-8.128-9.352-9.576-1.387-2.08-1.81-7.591-.87-11.235C35.272 7.444 40.277 2.166 46.41.461c1.786-.49 7.355-.444 9.165.093 1.339.397 1.597.607 5.357 4.438 6.462 6.54 6.697 6.914 7.19 10.861.682 5.349-1.221 10.697-5.24 14.668-2.208 2.15-4.511 3.597-7.425 4.625-1.762.607-2.35.7-4.935.77-1.997.024-3.383-.046-4.347-.303m9-8.595c1.434-.794 2.844-2.243 3.548-3.62 1.034-1.986 1.199-3.294 1.199-9.437 0-5.792 0-5.792-5.57-5.722-5.498.07-5.615.07-6.931.7-1.81.841-3.572 2.616-4.489 4.578-.752 1.565-.752 1.565-.822 7.942-.07 6.376-.07 6.376 5.874 6.306 5.946-.07 5.946-.07 7.191-.748M86.97 35.73c-7.825-1.005-13.982-7.007-15.298-14.925-.352-2.032-.188-5.279.353-7.358 1.151-4.39 4.323-8.665 8.154-11C82.668.926 85.088.203 88.05.063c3.29-.14 5.451.303 8.248 1.705 3.618 1.822 6.156 4.344 7.942 7.941 2.021 4.064 2.068 4.415 2.068 16 .024 10.16.024 10.16-3.901 10.23-3.947.047-3.947.047-3.994-2.686-.047-1.518-.047-3.2-.047-3.737 0-.56-.047-1.005-.118-1.005s-1.786 1.682-3.783 3.738c-4.089 4.204-3.619 3.994-7.496 3.48m11.444-13.57c-.094-4.999-.165-5.863-.611-7.194-1.34-4.041-4.418-6.517-8.413-6.727-2.467-.14-4.16.373-6.086 1.822-4.277 3.2-5.24 9.272-2.185 13.71.68.981 2.185 2.336 3.242 2.873 1.88.98 3.032 1.144 8.671 1.144 5.476.024 5.476.024 5.382-5.629m24.673 13.5c-.728-.164-1.739-.56-2.232-.911-1.222-.841-9.564-9.483-10.034-10.394-1.622-3.13-1.41-10.768.399-13.267.282-.42 2.515-2.803 4.935-5.302 5.452-5.65 5.311-5.557 10.762-5.72 4.254-.117 6.321.28 9.235 1.705 1.692.84 5.358 3.737 5.64 4.484.118.28-.517 1.075-2.491 3.037-1.457 1.471-2.89 2.71-3.195 2.803-.447.093-.799-.117-1.81-1.168-.705-.701-1.88-1.589-2.632-1.939-1.363-.677-1.363-.677-7.402-.747-6.063-.07-6.063-.07-6.063 9.763s0 9.833 6.063 9.763c5.992-.07 6.063-.07 7.379-.7.728-.328 1.833-1.099 2.42-1.682.705-.701 1.269-1.075 1.645-1.075.423 0 1.41.748 3.454 2.616 2.844 2.616 2.844 2.616.729 4.625-3.572 3.41-6.509 4.461-12.337 4.414-1.715 0-3.713-.14-4.465-.303m34.496-.14c-1.034-.257-2.185-.678-2.585-.935-.399-.233-2.702-2.429-5.122-4.835-4.935-4.928-5.123-5.232-5.734-8.829-.634-3.643-.047-7.077 1.81-10.697 1.034-2.032 2.044-3.34 4.065-5.232 1.997-1.892 4.065-3.13 6.932-4.134 1.88-.654 2.256-.7 5.546-.7 5.522-.024 5.169-.211 10.997 5.675 2.655 2.686 5.052 5.302 5.311 5.84.775 1.494 1.198 3.69 1.198 6.352 0 3.107-.54 5.396-2.021 8.339-1.927 3.9-6.227 7.59-10.433 8.969-2.256.724-7.402.817-9.964.187m7.637-8.573c2.703-1.33 4.442-3.76 4.935-6.89.117-.817.188-3.783.164-6.61-.07-5.138-.07-5.138-5.169-5.208-4.7-.047-5.194-.024-6.415.444-1.716.63-3.784 2.616-4.724 4.53-.681 1.402-.681 1.402-.752 8.012s-.07 6.61 5.17 6.54c5.264-.07 5.264-.07 6.791-.817" fill="#fff"/></svg>
